<svg xmlns="http://www.w3.org/2000/svg" x="0px" y="0px" width="115px" height="19px" viewBox="0 0 115 19" enable-background="new 0 0 115 19" xml:space="preserve">
    <path fill="#0075D6" d="M3.896,11.252c0,2.159,1.415,3.896,3.646,3.896 c2.174,0,3.647-1.663,3.647-3.896c0-2.232-1.473-3.896-3.647-3.896C5.311,7.356,3.896,9.093,3.896,11.252L3.896,11.252L3.896,11.252 z M14.794,18.328h-3.721v-1.562c-0.919,1.138-2.291,1.926-4.23,1.926C2.947,18.692,0,15.497,0,11.252 c0-4.246,2.947-7.441,6.843-7.441c1.94,0,3.297,0.788,4.23,1.942V4.19h3.721V18.328L14.794,18.328L14.794,18.328z M14.794,18.328"/>
    <path fill="#0075D6" d="M21.82,11.252c0,2.159,1.416,3.896,3.648,3.896 c2.174,0,3.646-1.663,3.646-3.896c0-2.232-1.473-3.896-3.646-3.896C23.236,7.356,21.82,9.093,21.82,11.252L21.82,11.252 L21.82,11.252z M28.926,5.665V0h3.794v18.328H29v-1.562c-0.92,1.138-2.292,1.926-4.232,1.926c-3.895,0-6.842-3.195-6.842-7.44 c0-4.246,2.947-7.441,6.842-7.441C26.664,3.811,28.007,4.555,28.926,5.665L28.926,5.665L28.926,5.665z M28.926,5.665"/>
    <path fill="#0075D6" d="M71.008,9.325v9.003H67.2v-7.777c0-2.042-1.021-3.166-2.757-3.166 c-1.635,0-2.991,1.066-2.991,3.196v7.747h-3.809V4.19h3.706v1.664c1.007-1.502,2.553-2.043,4.158-2.043 C68.717,3.811,71.008,6.043,71.008,9.325"/>
    <path fill="#0075D6" d="M77.904,11.252c0,2.291,1.604,3.896,3.749,3.896 c2.144,0,3.765-1.604,3.765-3.896c0-2.292-1.621-3.896-3.765-3.896C79.509,7.356,77.904,8.96,77.904,11.252L77.904,11.252 L77.904,11.252z M89.312,11.252c0,4.26-3.254,7.44-7.659,7.44c-4.392,0-7.631-3.181-7.631-7.44c0-4.261,3.239-7.441,7.631-7.441 C86.059,3.811,89.312,6.991,89.312,11.252L89.312,11.252L89.312,11.252z M89.312,11.252"/>
    <path fill="#0075D6" d="M107.982,14.111l3.035-9.921H115l-4.784,14.138h-4.349 l-3.137-9.557l-3.107,9.557h-4.318L90.52,4.19h4.056l3.02,9.877l3.166-9.877h4.012L107.982,14.111"/>
    <path fill="#0075D6" d="M46.867,13.085h3.778v5.243h-3.72v-1.562 c-0.92,1.138-2.291,1.926-4.232,1.926c-3.895,0-6.842-3.195-6.842-7.44c0-3.426,1.92-6.166,4.709-7.097l0.971,3.75 c-1.017,0.536-1.784,1.757-1.784,3.347c0,2.159,1.415,3.896,3.647,3.896c1.629,0,2.759-0.907,3.223-2.062H46.867"/>
    <path fill="#0075D6" d="M50.661,3.811h4.37v3.794h-4.37v3.955h-3.794V7.604H42.71V3.811 h4.157V0h3.794V3.811"/>
</svg>
