<svg version="1.1" id="Layer_1" xmlns="http://www.w3.org/2000/svg" xmlns:xlink="http://www.w3.org/1999/xlink" x="0px" y="0px"
	 width="20px" height="19px" viewBox="0 0 20 19" enable-background="new 0 0 20 19" xml:space="preserve">
	<path fill="#FFFFFF" d="M11.016,13.085h3.778v5.243h-3.72v-1.562c-0.92,1.139-2.291,1.926-4.232,1.926
		C2.947,18.691,0,15.497,0,11.252c0-3.426,1.92-6.166,4.709-7.097l0.971,3.75c-1.017,0.536-1.784,1.757-1.784,3.347
		c0,2.159,1.415,3.896,3.647,3.896c1.629,0,2.759-0.907,3.223-2.062L11.016,13.085"/>
	<path fill="#FFFFFF" d="M14.81,3.811h4.37v3.794h-4.37v3.956h-3.794V7.604H6.859V3.811h4.157V0h3.794V3.811"/>
</svg>