<svg xmlns="http://www.w3.org/2000/svg" x="0px" y="0px" width="16px" height="16px" viewBox="0 0 16 16" enable-background="new 0 0 16 16" xml:space="preserve">
    <path fill="#979797" d="M15,6h-1.349c-0.07-0.199-0.151-0.393-0.24-0.582l0.952-0.954c0.391-0.391,0.391-1.024,0-1.414l-1.414-1.416
        c-0.391-0.39-1.023-0.39-1.414,0l-0.954,0.954C10.394,2.5,10.199,2.418,10,2.348V1c0-0.553-0.448-1-1-1H7C6.448,0,6,0.448,6,1v1.347
        C5.801,2.418,5.606,2.5,5.418,2.589L4.464,1.636c-0.39-0.39-1.024-0.39-1.414,0L1.636,3.051c-0.391,0.39-0.391,1.023,0,1.413
        L2.59,5.418C2.5,5.606,2.419,5.8,2.349,6H1C0.448,6,0,6.447,0,7v2c0,0.552,0.448,1,1,1h1.349c0.07,0.199,0.151,0.393,0.242,0.581
        l-0.954,0.955c-0.391,0.391-0.391,1.024,0,1.414l1.414,1.415c0.391,0.39,1.024,0.39,1.414,0l0.954-0.955
        C5.607,13.498,5.801,13.579,6,13.65v1.349C6,15.552,6.448,16,7,15.999L9,16c0.553-0.001,1-0.448,1-1v-1.35
        c0.2-0.071,0.393-0.152,0.582-0.241l0.955,0.954c0.39,0.391,1.023,0.391,1.413,0l1.415-1.414c0.39-0.391,0.39-1.023,0-1.414
        L13.41,10.58c0.09-0.188,0.171-0.382,0.241-0.581H15c0.553,0,1-0.448,1-1V7C16,6.447,15.553,6,15,6z M15,8.499
        c0,0.276-0.224,0.5-0.5,0.5h-1.602c-0.128,0.638-0.381,1.231-0.729,1.756l1.134,1.134c0.195,0.195,0.195,0.511,0,0.707l-0.708,0.707
        c-0.195,0.194-0.511,0.194-0.707,0l-1.133-1.134c-0.525,0.348-1.118,0.6-1.756,0.729V14.5C9,14.775,8.776,15,8.5,15H7.5
        C7.224,14.999,7,14.775,7,14.5v-1.602c-0.638-0.13-1.232-0.382-1.756-0.729L4.11,13.304c-0.195,0.194-0.512,0.194-0.707,0
        l-0.707-0.708c-0.195-0.196-0.195-0.512,0-0.707l1.134-1.134c-0.348-0.524-0.6-1.118-0.729-1.756H1.5c-0.276,0-0.5-0.224-0.5-0.5v-1
        C1,7.223,1.224,7,1.5,7h1.601C3.23,6.361,3.482,5.768,3.83,5.243L2.697,4.111c-0.196-0.195-0.195-0.512,0-0.708l0.708-0.707
        c0.195-0.195,0.511-0.196,0.707,0L5.244,3.83C5.769,3.482,6.362,3.229,7,3.1V1.501C7,1.224,7.224,1,7.5,1H8.5
        C8.776,1,9,1.224,9,1.501V3.1c0.638,0.129,1.232,0.382,1.756,0.729l1.133-1.133c0.195-0.196,0.512-0.195,0.707,0l0.707,0.707
        c0.195,0.196,0.196,0.512,0,0.708L12.17,5.243C12.518,5.768,12.771,6.361,12.898,7H14.5C14.776,7,15,7.223,15,7.5V8.499z"/>
    <path fill="#979797" d="M8,4.999C6.343,4.999,5,6.342,5,8c0,1.656,1.343,2.999,3,2.999S11,9.656,11,8C11,6.342,9.657,4.999,8,4.999z
         M8,9.999C6.896,9.999,6,9.103,6,8c0-1.105,0.895-2,2-2s2,0.896,2,2C10,9.103,9.104,9.999,8,9.999z"/>
</svg>
