<?xml version="1.0" encoding="UTF-8" standalone="no"?>
<svg width="150px" height="114px" viewBox="0 0 150 114" version="1.1" xmlns="http://www.w3.org/2000/svg" xmlns:xlink="http://www.w3.org/1999/xlink" xmlns:sketch="http://www.bohemiancoding.com/sketch/ns">
    <!-- Generator: Sketch 3.3.2 (12043) - http://www.bohemiancoding.com/sketch -->
    <title>Group Copy + Group Copy</title>
    <desc>Created with Sketch.</desc>
    <defs></defs>
    <g id="Screens" stroke="none" stroke-width="1" fill="none" fill-rule="evenodd" sketch:type="MSPage">
        <g id="Home-Copy" sketch:type="MSArtboardGroup" transform="translate(-975.000000, -687.000000)">
            <g id="Features-Copy" sketch:type="MSLayerGroup" transform="translate(0.000000, 477.000000)">
                <g id="Social-Equity-and-Au-+-Implement-elegant-sh-Copy-2" transform="translate(900.000000, 211.000000)" sketch:type="MSShapeGroup">
                    <g id="Group-Copy-+-Group-Copy" transform="translate(76.000000, 0.000000)">
                        <g id="Group-Copy" transform="translate(0.500000, 0.000000)">
                            <path d="M91.4708848,64.4947121 C91.4708848,75.4330435 82.3601457,84.2925969 71.1230587,84.2925969 C59.8859717,84.2925969 50.7752326,75.4330435 50.7752326,64.4947121 C50.7752326,53.5638049 59.8859717,44.6968273 71.1230587,44.6968273 C82.3601457,44.6968273 91.4708848,53.5638049 91.4708848,64.4947121 L91.4708848,64.4947121 Z" id="Stroke-8567" stroke="#0075D6" stroke-width="2" stroke-linejoin="round"></path>
                            <path d="M21.5949841,24.4933253 C21.5949841,30.2891386 16.7705806,34.9866505 10.8101776,34.9866505 C4.84977448,34.9866505 0.025371033,30.2891386 0.025371033,24.4933253 C0.025371033,18.6940142 4.84977448,14 10.8101776,14 C16.7705806,14 21.5949841,18.6940142 21.5949841,24.4933253 L21.5949841,24.4933253 Z" id="Stroke-8568" stroke="#0075D6" stroke-width="2" stroke-linejoin="round"></path>
                            <g id="Shape-+-Shape-2" transform="translate(6.000000, 20.000000)" fill="#0075D6">
                                <path d="M10,1.2 L8.8,1.2 L8.8,0 L8.2,0 L8.2,1.2 L7,1.2 L7,1.8 L8.2,1.8 L8.2,3 L8.8,3 L8.8,1.8 L10,1.8 L10,1.2 Z" id="Shape"></path>
                                <path d="M4.87564977,5.72246397 C4.61779366,5.51740549 4.056517,5.097226 4.056517,4.81520261 C4.056517,4.48449823 4.14559223,4.32172967 4.61522665,3.93323361 C5.09654095,3.53467501 5.43731149,3.00951863 5.43731149,2.35790046 C5.43731149,1.6479467 5.16328321,1.00394343 4.64795602,0.691188469 L5.37827026,0.691188469 L6,0 L3.21787494,0 C1.80601964,0 0.629559116,1.1028012 0.629559116,2.31601849 C0.629559116,3.55575197 1.40261407,4.54392168 2.73027146,4.54392168 C2.82255546,4.54392168 2.91214409,4.5388904 3.00006418,4.53222736 C2.913941,4.70723416 2.85233277,4.90223008 2.85233277,5.10674463 C2.85233277,5.45118303 3.03112499,5.64781072 3.25240122,5.87557792 C3.0852889,5.87557792 2.92382399,5.88033723 2.74772713,5.88033723 C1.13153785,5.88033723 0,7.05874354 0,8.18982866 C0,9.30337231 1.36385223,10 2.98016985,10 C4.82276938,10 5.95610414,8.89230351 5.95610414,7.77835192 C5.95597578,6.88550449 5.77410315,6.43636116 4.87564977,5.72246397 L4.87564977,5.72246397 Z M3.27306348,4.03785626 C2.51178697,4.01366873 1.78842445,3.27704862 1.65696322,2.22282978 C1.52563227,1.16819867 2.03597286,0.361352264 2.7969888,0.385127503 C3.55800473,0.4091776 4.20905706,1.27429395 4.34051829,2.32865021 C4.47184924,3.3831439 4.03394913,4.0616315 3.27306348,4.03785626 L3.27306348,4.03785626 Z M2.99482425,9.42307692 C1.88930874,9.42307692 1.09090909,8.67613302 1.09090909,7.7788514 C1.09090909,6.89959946 2.02762519,6.14099726 3.13326771,6.15401116 C3.3912298,6.15685796 3.63153717,6.20118657 3.8498714,6.27655877 C4.45000476,6.72187832 4.93417585,7.00018609 5.05572667,7.50772838 C5.07846188,7.610484 5.09090909,7.71635754 5.09090909,7.82467119 C5.09090909,8.7219528 4.54920141,9.42307692 2.99482425,9.42307692 L2.99482425,9.42307692 Z" id="Shape-2"></path>
                            </g>
                            <path d="M146.722222,13 C146.722222,20.1803333 140.745352,26 133.361111,26 C125.97687,26 120,20.1803333 120,13 C120,5.81533333 125.97687,0 133.361111,0 C140.745352,0 146.722222,5.81533333 146.722222,13 L146.722222,13 Z" id="Stroke-8569" stroke="#0075D6" stroke-width="2" stroke-linejoin="round"></path>
                            <path d="M139.460818,9.1025252 C139.039177,9.28956481 138.585961,9.4159197 138.110397,9.47276508 C138.595817,9.18177636 138.968693,8.72099647 139.144215,8.17191141 C138.689853,8.4414112 138.186668,8.63704639 137.651049,8.74248539 C137.222188,8.28548755 136.6111,8 135.9348,8 C134.636296,8 133.583453,9.05272819 133.583453,10.3512324 C133.583453,10.5355214 133.604255,10.7149969 133.64431,10.8870803 C131.690136,10.7890335 129.957613,9.85291851 128.797955,8.43035157 C128.595558,8.77761263 128.479576,9.18148984 128.479576,9.61241445 C128.479576,10.4281914 128.894684,11.1478699 129.525599,11.5695113 C129.140116,11.5573056 128.777613,11.4515227 128.460608,11.2754282 C128.460379,11.2852271 128.460379,11.2950834 128.460379,11.3049969 C128.460379,12.4441965 129.270884,13.3945228 130.346533,13.6105582 C130.149236,13.6643091 129.94151,13.6930184 129.727022,13.6930184 C129.575453,13.6930184 129.428183,13.678234 129.284579,13.6508428 C129.583877,14.5849521 130.452144,15.2648044 131.481092,15.2837147 C130.676374,15.9144003 129.662555,16.290256 128.56089,16.290256 C128.371099,16.290256 128.183945,16.279139 128,16.2573636 C129.04058,16.9245518 130.276566,17.3138738 131.604352,17.3138738 C135.929242,17.3138738 138.294285,13.7310108 138.294285,10.6238266 C138.294285,10.5218831 138.291992,10.4205127 138.287465,10.3196007 C138.746985,9.98815549 139.14559,9.5740209 139.460818,9.1025252 L139.460818,9.1025252 Z" id="Shape-5" fill="#0075D6"></path>
                            <path d="M134.283868,95.7270657 L133,95.7270657 L133,93.9787638 L134.283868,93.9787638 L134.283868,92.4855563 C134.283868,91.3121601 135.042264,90.2347072 136.789717,90.2347072 C137.497264,90.2347072 138.020566,90.3025374 138.020566,90.3025374 L137.979245,91.9350846 C137.979245,91.9350846 137.44566,91.9298959 136.863396,91.9298959 C136.233208,91.9298959 136.132264,92.2202733 136.132264,92.7023487 C136.132264,93.0833865 136.132264,91.8901789 136.132264,93.9788582 L138.02934,93.9788582 L137.946792,95.7271601 L136.132264,95.7271601 L136.132264,100.582726 L134.283868,100.582726 L134.283868,95.7270657 Z" id="Shape-3" fill="#0075D6"></path>
                            <path d="M32,102.756757 C32,107.596324 27.974,111.513514 23,111.513514 C18.026,111.513514 14,107.596324 14,102.756757 C14,97.9259459 18.026,94 23,94 C27.974,94 32,97.9259459 32,102.756757 L32,102.756757 Z" id="Stroke-8570" stroke="#0075D6" stroke-width="2" stroke-linejoin="round"></path>
                            <path d="M18,101.271892 C18,102.448056 18.4452957,103.494421 19.4003689,103.884349 C19.5569781,103.948375 19.697258,103.886552 19.7426762,103.713158 C19.7742715,103.593157 19.8490064,103.290419 19.8823485,103.164342 C19.9281465,102.992847 19.9103741,102.932694 19.7839931,102.783224 C19.5085978,102.458385 19.3326213,102.037849 19.3326213,101.442172 C19.3326213,99.7140027 20.6255967,98.1668981 22.6994915,98.1668981 C24.5358902,98.1668981 25.544812,99.2889856 25.544812,100.787558 C25.544812,102.7593 24.6722207,104.423444 23.3768149,104.423444 C22.6613645,104.423444 22.12584,103.831792 22.2975633,103.106164 C22.5030844,102.239877 22.901291,101.30493 22.901291,100.679633 C22.901291,100.11988 22.6008322,99.6530147 21.9789524,99.6530147 C21.2476284,99.6530147 20.660154,100.409554 20.660154,101.423033 C20.660154,102.068533 20.8782828,102.505095 20.8782828,102.505095 C20.8782828,102.505095 20.1298701,105.676089 19.9987041,106.231361 C19.7374356,107.337347 19.9594379,108.693133 19.9781976,108.830071 C19.9892104,108.911186 20.0934899,108.930477 20.1407309,108.869186 C20.2081747,108.781159 21.079171,107.705857 21.3753006,106.63139 C21.4590736,106.327134 21.8562929,104.7517 21.8562929,104.7517 C22.093865,105.204895 22.7882772,105.604089 23.5267405,105.604089 C25.7250417,105.604089 27.2164748,103.599992 27.2164748,100.917433 C27.2164748,98.8891081 25.4984064,97 22.8871643,97 C19.6381688,97 18,99.3293911 18,101.271892 Z" id="Shape-4-Copy" fill="#0075D6"></path>
                            <path d="M29.5,95.9999997 L60.7806391,67.5385892" id="Stroke-8572" stroke="#0075D6" stroke-width="2" stroke-linejoin="round"></path>
                            <path d="M99.5392391,44.5211175 L122.967217,21.6768331" id="Stroke-8573" stroke="#0075D6" stroke-width="2" stroke-linejoin="round"></path>
                            <path d="M19.5,29 L45.7273174,40.6095575" id="Stroke-8574" stroke="#0075D6" stroke-width="2" stroke-linejoin="round"></path>
                            <path d="M127.049689,91.9616435 L102.5,83" id="Stroke-8575" stroke="#0075D6" stroke-width="2" stroke-linejoin="round"></path>
                            <path d="M144,95.2655699 C144,99.9036122 140.136442,103.66275 135.369565,103.66275 C130.602688,103.66275 126.73913,99.9036122 126.73913,95.2655699 C126.73913,90.6275276 130.602688,86.8683901 135.369565,86.8683901 C140.136442,86.8683901 144,90.6275276 144,95.2655699 L144,95.2655699 Z" id="Stroke-8577" stroke="#0075D6" stroke-width="2" stroke-linejoin="round"></path>
                        </g>
                        <g id="Group" transform="translate(45.000000, 39.000000)" stroke="#0075D6" stroke-width="2" fill="#FFFFFF" stroke-linecap="round" stroke-linejoin="round">
                            <path d="M58.5454545,40.8888889 C58.5454545,43.7115 56.2672727,46 53.4545455,46 L5.09090909,46 C2.28072727,46 0,43.7115 0,40.8888889 L0,5.11111111 C0,2.2885 2.28072727,0 5.09090909,0 L53.4545455,0 C56.2672727,0 58.5454545,2.2885 58.5454545,5.11111111 L58.5454545,40.8888889 L58.5454545,40.8888889 Z" id="Stroke-5061"></path>
                            <path d="M0,12.5454545 L58.5454545,12.5454545" id="Stroke-5062"></path>
                            <path d="M10.4545455,6.27272727 C10.4545455,7.04357576 9.83006061,7.66666667 9.06060606,7.66666667 C8.28975758,7.66666667 7.66666667,7.04357576 7.66666667,6.27272727 C7.66666667,5.50187879 8.28975758,4.87878788 9.06060606,4.87878788 C9.83006061,4.87878788 10.4545455,5.50187879 10.4545455,6.27272727 L10.4545455,6.27272727 Z" id="Stroke-5063"></path>
                            <path d="M18.1212121,6.27272727 C18.1212121,7.04357576 17.4967273,7.66666667 16.7272727,7.66666667 C15.9564242,7.66666667 15.3333333,7.04357576 15.3333333,6.27272727 C15.3333333,5.50187879 15.9564242,4.87878788 16.7272727,4.87878788 C17.4967273,4.87878788 18.1212121,5.50187879 18.1212121,6.27272727 L18.1212121,6.27272727 Z" id="Stroke-5064"></path>
                            <path d="M25.7878788,6.27272727 C25.7878788,7.04357576 25.1633939,7.66666667 24.3939394,7.66666667 C23.6230909,7.66666667 23,7.04357576 23,6.27272727 C23,5.50187879 23.6230909,4.87878788 24.3939394,4.87878788 C25.1633939,4.87878788 25.7878788,5.50187879 25.7878788,6.27272727 L25.7878788,6.27272727 Z" id="Stroke-5065"></path>
                            <path d="M0,30.5670996 L12.7272727,30.5670996 L17.8181818,22.8008658 L22.9090909,35.7445887 L33.0909091,20.2121212 L40.7272727,38.3333333 L45.8181818,30.5670996 L58.5454545,30.5670996" id="Stroke-5066"></path>
                        </g>
                    </g>
                </g>
            </g>
        </g>
    </g>
</svg>