<svg xmlns="http://www.w3.org/2000/svg" width="31" height="18" viewBox="0 0 31 18">
    <path fill="#aaaab5" opacity="0.6" d="M30.943,11.934 C30.930,11.978 30.921,12.021 30.904,12.064 C30.886,12.108 30.862,12.148 30.840,12.189 C30.823,12.221 30.809,12.255 30.789,12.285 C30.743,12.355 30.691,12.421 30.632,12.482 L25.627,17.623 C25.382,17.875 25.062,18.000 24.742,18.000 C24.422,18.000 24.101,17.875 23.857,17.623 C23.368,17.121 23.368,16.308 23.857,15.805 L26.726,12.857 L12.851,12.857 C12.160,12.857 11.600,12.282 11.600,11.571 C11.600,10.862 12.160,10.286 12.851,10.286 L26.726,10.286 L23.857,7.338 C23.368,6.835 23.368,6.022 23.857,5.519 C24.345,5.017 25.138,5.017 25.627,5.519 L30.632,10.662 C30.691,10.721 30.743,10.788 30.789,10.860 C30.809,10.890 30.823,10.922 30.840,10.955 C30.862,10.996 30.886,11.037 30.904,11.081 C30.921,11.122 30.930,11.166 30.943,11.209 C30.954,11.245 30.968,11.281 30.975,11.320 C31.007,11.486 31.007,11.657 30.975,11.824 C30.968,11.862 30.954,11.898 30.943,11.934 ZM19.110,7.714 L5.234,7.714 L8.104,10.662 C8.593,11.165 8.593,11.978 8.104,12.481 C7.860,12.732 7.539,12.857 7.219,12.857 C6.899,12.857 6.578,12.732 6.334,12.481 L1.328,7.339 C1.270,7.279 1.218,7.212 1.171,7.142 C1.152,7.112 1.138,7.078 1.121,7.046 C1.098,7.005 1.074,6.965 1.056,6.921 C1.040,6.878 1.030,6.835 1.018,6.791 C1.007,6.755 0.993,6.719 0.985,6.681 C0.953,6.514 0.953,6.343 0.985,6.178 C0.993,6.138 1.007,6.102 1.018,6.066 C1.030,6.023 1.040,5.979 1.056,5.938 C1.074,5.894 1.098,5.853 1.121,5.812 C1.138,5.779 1.152,5.747 1.171,5.717 C1.218,5.645 1.270,5.579 1.328,5.519 L6.334,0.377 C6.822,-0.126 7.616,-0.126 8.104,0.377 C8.593,0.879 8.593,1.692 8.104,2.195 L5.234,5.143 L19.110,5.143 C19.801,5.143 20.361,5.719 20.361,6.429 C20.361,7.139 19.801,7.714 19.110,7.714 Z" />
</svg>