<?xml version="1.0" encoding="utf-8"?>
<!-- Generator: Adobe Illustrator 16.0.0, SVG Export Plug-In . SVG Version: 6.00 Build 0)  -->
<!DOCTYPE svg PUBLIC "-//W3C//DTD SVG 1.1//EN" "http://www.w3.org/Graphics/SVG/1.1/DTD/svg11.dtd">
<svg version="1.1" id="Layer_1" xmlns:sketch="http://www.bohemiancoding.com/sketch/ns"
	 xmlns="http://www.w3.org/2000/svg" xmlns:xlink="http://www.w3.org/1999/xlink" x="0px" y="0px" width="1091px" height="522px"
	 viewBox="0 0 1091 522" enable-background="new 0 0 1091 522" xml:space="preserve">
<title>Graphic</title>
<desc>Created with Sketch Beta.</desc>
<g id="Artboard-1" transform="translate(-232.000000, -95.000000)" sketch:type="MSArtboardGroup" opacity="0.1">
	<g id="Graphic" transform="translate(232.000000, 95.000000)" sketch:type="MSLayerGroup">
		<g id="Group-_x2B_-Group">
			<g id="Group" transform="translate(11.000000, 34.000000)">
				<g id="_x31_418170584_x5F_654854-user-women" transform="translate(284.000000, 119.000000)">
				</g>
				<g transform="translate(0.000000, 27.000000)" sketch:type="MSShapeGroup">
					<path id="Line" fill="#D8D8D8" stroke="#2A548A" stroke-width="4" stroke-linecap="square" d="M107.5,67l-86.247,88.045"/>
					<path id="Line_2_" fill="#D8D8D8" stroke="#2A548A" stroke-width="4" stroke-linecap="square" d="M383.5,256.5l-187.688-51.963
						"/>
					<circle id="Oval-1" fill="#2A548A" cx="184" cy="201" r="18"/>
					<circle id="Oval-4" fill="#2A548A" cx="12" cy="162" r="12"/>
					<path id="Line_4_" fill="#D8D8D8" stroke="#2A548A" stroke-width="4" stroke-linecap="square" d="M181.5,195.5L73.605,0.5"/>
					<path id="Line_5_" fill="#D8D8D8" stroke="#2A548A" stroke-width="4" stroke-linecap="square" d="M180.5,205.5L47.996,338.004"
						/>
				</g>
				
					<g transform="translate(835.010105, 211.413717) rotate(-20.000000) translate(-835.010105, -211.413717) translate(610.010105, 68.413717)" sketch:type="MSShapeGroup">
					<path id="Line_6_" fill="none" stroke="#2A548A" stroke-width="4" stroke-linecap="square" d="M-0.012,192.049l248.07-61.341"
						/>
					<path id="Line_7_" fill="none" stroke="#2A548A" stroke-width="4" stroke-linecap="square" d="M104.5,168.5l67,95"/>
					<path id="Line_8_" fill="none" stroke="#2A548A" stroke-width="4" stroke-linecap="square" d="M269.5,120.5L449.968,0.375"/>
					<path id="Line_9_" fill="none" stroke="#2A548A" stroke-width="4" stroke-linecap="square" d="M263.5,129.5l123.38,156.737"/>
					
						<ellipse id="Oval-7" transform="matrix(-0.9397 -0.342 0.342 -0.9397 244.5909 575.1272)" fill="#2A548A" cx="173" cy="266" rx="12" ry="12"/>
					
						<ellipse id="Oval-6" transform="matrix(-0.9397 -0.342 0.342 -0.9397 470.5824 336.9753)" fill="#2A548A" cx="265" cy="127" rx="18" ry="18"/>
				</g>
			</g>
			<g id="Group_5_" sketch:type="MSShapeGroup">
				<g id="_x31_418171813_x5F_circle-linkedin" transform="translate(0.000000, 388.000000)">
					<g id="Group_1_">
						<circle id="Oval" fill="#2A548A" cx="32" cy="32" r="32"/>
						<g transform="translate(18.000000, 15.000000)">
							<rect id="Rectangle-path" y="7.895" fill="#FFFFFF" width="6.223" height="22.105"/>
							<path id="Shape" fill="#FFFFFF" d="M20.998,7.895c-4.342,0-5.088,1.607-5.442,3.158V7.895H9.334V30h6.222V17.368
								c0-2.048,1.093-3.157,3.11-3.157c1.97,0,3.111,1.086,3.111,3.157V30H28V18.947C28,12.632,27.189,7.895,20.998,7.895
								L20.998,7.895z"/>
							<ellipse id="Oval_1_" fill="#FFFFFF" cx="3.111" cy="3.158" rx="3.111" ry="3.158"/>
						</g>
					</g>
				</g>
				<g id="_x31_418171810_x5F_circle-google-plus" transform="translate(963.000000, 16.000000)">
					<g id="Group_2_">
						<circle id="Oval_2_" fill="#2A548A" cx="32" cy="32" r="32"/>
						<g id="Shape_1_" transform="translate(15.000000, 16.000000)">
							<path fill="#FFFFFF" d="M21.667-0.003H11.394c-4.7,0-9.125,3.266-9.125,7.348c0,4.171,3.203,7.415,7.984,7.415
								c0.334,0,0.657-0.074,0.974-0.097c-0.313,0.585-0.53,1.216-0.53,1.904c0,1.16,0.629,2.085,1.424,2.853
								c-0.597,0-1.182,0.008-1.816,0.008C4.481,19.429,0,23.097,0,26.903C0,30.652,4.913,33,10.735,33
								c6.638,0,10.305-3.732,10.305-7.481c0-3.005-0.896-4.807-3.665-6.75c-0.948-0.662-2.76-2.277-2.76-3.227
								c0-1.112,0.319-1.66,2.013-2.97c1.732-1.34,2.96-2.938,2.96-5.133c0-2.608-1.133-5.792-3.338-5.792H20L21.667-0.003
								L21.667-0.003z M18.219,24.869c0.08,0.35,0.128,0.708,0.128,1.071c0,3.03-1.975,5.397-7.634,5.397
								c-4.024,0-6.93-2.521-6.93-5.551c0-2.968,3.605-5.441,7.632-5.397c0.937,0.01,1.813,0.16,2.606,0.411
								C16.207,22.306,17.773,23.156,18.219,24.869L18.219,24.869z M11.771,13.568c-2.701-0.078-5.27-2.991-5.734-6.501
								c-0.466-3.515,1.347-6.202,4.046-6.123c2.7,0.083,5.271,2.901,5.735,6.412C16.285,10.867,14.474,13.647,11.771,13.568
								L11.771,13.568z"/>
							<path fill="#FFFFFF" d="M30,13.185v-4.95h-3.333v4.95h-5v3.3h5v4.95H30v-4.95h5v-3.3H30z"/>
						</g>
					</g>
				</g>
				<g id="_x31_418171800_x5F_circle-twitter" transform="translate(1027.000000, 300.000000)">
					<g id="Group_3_">
						<circle id="Oval_3_" fill="#2A548A" cx="32" cy="32" r="32"/>
						<path id="Shape_2_" fill="#FFFFFF" d="M50.026,23.316c-1.29,0.565-2.673,0.941-4.129,1.113
							c1.487-0.872,2.625-2.256,3.162-3.906c-1.388,0.809-2.926,1.396-4.564,1.713c-1.31-1.372-3.179-2.231-5.243-2.231
							c-3.972,0-7.186,3.163-7.186,7.069c0,0.551,0.063,1.094,0.183,1.615c-5.972-0.301-11.265-3.115-14.81-7.39
							c-0.619,1.045-0.978,2.258-0.978,3.555c0,2.451,1.273,4.614,3.199,5.886c-1.177-0.04-2.286-0.357-3.252-0.887
							c-0.002,0.03-0.002,0.058-0.002,0.089c0,3.427,2.477,6.285,5.764,6.936c-0.601,0.158-1.235,0.247-1.894,0.247
							c-0.463,0-0.91-0.042-1.35-0.124c0.912,2.806,3.566,4.85,6.71,4.911c-2.453,1.894-5.555,3.028-8.924,3.028
							c-0.578,0-1.153-0.033-1.714-0.102c3.179,2.006,6.959,3.175,11.018,3.175c13.218,0,20.446-10.775,20.446-20.119
							c0-0.303-0.01-0.614-0.024-0.912C47.844,25.979,49.062,24.734,50.026,23.316L50.026,23.316z"/>
					</g>
				</g>
				<g id="_x31_418171807_x5F_circle-facebook_x5F_" transform="translate(43.000000, 0.000000)">
					<g id="Group_4_">
						<circle id="Oval_4_" fill="#2A548A" cx="32" cy="32" r="32"/>
						<path id="f_2_" fill="#FFFFFF" d="M33.929,50V35.333h4.856L40,29.222h-6.071v-2.444c0-2.444,1.217-3.667,3.643-3.667H40V17
							h-4.857c-4.463,0-7.285,3.521-7.285,8.556v3.667H23v6.111h4.857V50H33.929L33.929,50z"/>
					</g>
				</g>
			</g>
		</g>
		<path id="Shape_3_" sketch:type="MSShapeGroup" fill="#2A548A" d="M670.72,472.912c-1.209-0.281-2.439-0.545-3.671-0.78
			c-31.663-29.2-10.052-151.102-10.052-151.102c0-185.817-125.927-167.537-125.927-167.537c-1.546-0.084-3.063-0.146-4.57-0.196
			c-1.507,0.05-3.024,0.112-4.565,0.196c0,0-125.932-18.281-125.932,167.537c0,0,21.611,121.901-10.052,151.102
			c-1.236,0.235-2.462,0.499-3.671,0.78c-8.192,1.906-39.804,4.228-65.716,48.668c419.865-0.002,0,0,419.865-0.002
			C710.518,477.14,678.908,474.818,670.72,472.912z M626.346,313.203c0.371,0.067,0.731,0.186,1.074,0.348
			c4.739,2.211,6.763,13.226,4.509,25.794c-1.721,9.64-5.493,17.58-9.507,20.974c-1.597,1.353-3.238,1.986-4.801,1.712
			c-0.883-0.152-1.692-0.584-2.412-1.258c-8.844,27.444-25.749,54.787-47.078,71.223c-12.447,9.589-26.401,15.47-41.147,15.47
			c-14.836,0-28.874-5.954-41.378-15.649c-21.217-16.452-38.038-43.699-46.842-71.043c-0.72,0.668-1.523,1.1-2.406,1.258
			c-1.821,0.319-3.744-0.59-5.582-2.43c-3.722-3.715-7.129-11.239-8.742-20.256c-2.125-11.862-0.438-22.344,3.744-25.346
			c0.573-0.41,1.186-0.685,1.844-0.797c1.507-0.258,3.075,0.314,4.615,1.555v0.005c0-0.005,0.012-0.135,0.04-0.37
			c0.528-5.157,7.409-62.946,50.743-58.939l132.561,68.102L626.346,313.203z M607.681,475.812
			c-11.396,14.55-43.43,35.553-81.175,35.553c-37.757,0-69.785-21.003-81.187-35.553c-2.429-3.103-3.941-6.385-4.346-9.785v-0.006
			c0.573-0.19,1.883-0.656,3.598-1.437c0.708-0.325,1.484-0.695,2.3-1.122c6.897-3.608,17.04-11.16,17.045-24.426
			c0.006-0.005,0.006-0.005,0.012-0.005c10.896,10.778,23.011,19.308,35.952,24.431c8.703,3.445,17.782,5.353,27.109,5.353
			c9.332,0,18.406-1.907,27.114-5.353c12.818-5.072,24.827-13.495,35.644-24.134c0.079,0.034,0.146,0.067,0.219,0.102
			c0.271,17.097,17.451,24.588,22.105,26.305c-0.011,0.101-0.017,0.196-0.027,0.297C611.628,469.428,610.115,472.71,607.681,475.812
			L607.681,475.812z"/>
	</g>
</g>
</svg>
