<?xml version="1.0" encoding="UTF-8" standalone="no"?>
<svg width="183px" height="21px" viewBox="0 0 183 21" version="1.1" xmlns="http://www.w3.org/2000/svg" xmlns:xlink="http://www.w3.org/1999/xlink" xmlns:sketch="http://www.bohemiancoding.com/sketch/ns">
    <!-- Generator: Sketch 3.1.1 (8761) - http://www.bohemiancoding.com/sketch -->
    <title>GRAVITY4</title>
    <desc>Created with Sketch.</desc>
    <defs></defs>
    <g id="Page-1" stroke="none" stroke-width="1" fill="none" fill-rule="evenodd" sketch:type="MSPage">
        <g id="Artboard-1" sketch:type="MSArtboardGroup" transform="translate(-165.000000, -42.000000)" fill="#464C52">
            <path d="M175.872,62.336 C178.784,62.336 181.192,61.272 182.984,59.956 C183.488,59.62 183.74,59.144 183.74,58.612 L183.74,52.648 C183.74,52.032 183.236,51.528 182.648,51.528 L176.348,51.528 C175.816,51.528 175.368,51.976 175.368,52.536 C175.368,53.068 175.816,53.516 176.348,53.516 L181.612,53.516 L181.612,58.388 C180.268,59.48 178.196,60.348 175.956,60.348 C171.196,60.348 168.2,56.876 168.2,52.2 L168.2,52.144 C168.2,47.776 171.308,44.108 175.648,44.108 C178.112,44.108 179.68,44.836 181.08,45.9 C181.304,46.068 181.528,46.18 181.78,46.18 C182.368,46.18 182.872,45.676 182.872,45.06 C182.872,44.668 182.676,44.36 182.424,44.164 C180.632,42.848 178.7,42.064 175.732,42.064 C169.852,42.064 165.904,46.824 165.904,52.2 L165.904,52.256 C165.904,57.856 169.712,62.336 175.872,62.336 L175.872,62.336 Z M194.724,61.02 C194.724,61.636 195.228,62.14 195.816,62.14 C196.432,62.14 196.936,61.636 196.936,61.02 L196.936,54.384 L202.564,54.384 L208.08,61.552 C208.332,61.888 208.668,62.14 209.116,62.14 C209.676,62.14 210.236,61.636 210.236,61.048 C210.236,60.74 210.096,60.488 209.872,60.236 L205,53.964 C208.052,53.376 210.236,51.5 210.236,48.28 L210.236,48.224 C210.236,46.684 209.676,45.312 208.724,44.36 C207.492,43.128 205.56,42.4 203.152,42.4 L195.816,42.4 C195.228,42.4 194.724,42.904 194.724,43.52 L194.724,61.02 Z M196.936,52.396 L196.936,44.444 L202.984,44.444 C206.148,44.444 207.996,45.9 207.996,48.308 L207.996,48.364 C207.996,50.884 205.896,52.396 202.956,52.396 L196.936,52.396 Z M219.624,61.132 C219.624,61.692 220.072,62.14 220.632,62.14 C221.136,62.14 221.5,61.86 221.696,61.384 L223.74,56.82 L234.492,56.82 L236.536,61.328 C236.732,61.776 237.096,62.14 237.628,62.14 C238.216,62.14 238.692,61.664 238.692,61.076 C238.692,60.908 238.636,60.712 238.552,60.516 L230.6,43.156 C230.348,42.54 229.9,42.176 229.228,42.176 L229.116,42.176 C228.416,42.176 227.996,42.54 227.716,43.156 L219.764,60.544 C219.652,60.768 219.624,60.964 219.624,61.132 L219.624,61.132 Z M224.608,54.804 L229.116,44.78 L233.624,54.804 L224.608,54.804 Z M253.932,62.224 L254.044,62.224 C254.688,62.224 255.08,61.86 255.332,61.3 L262.92,43.772 C262.976,43.632 263.004,43.492 263.004,43.324 C263.004,42.764 262.528,42.26 261.912,42.26 C261.408,42.26 261.016,42.652 260.82,43.044 L254.016,59.34 L247.24,43.1 C247.044,42.624 246.652,42.26 246.092,42.26 C245.476,42.26 244.972,42.792 244.972,43.352 C244.972,43.548 245,43.688 245.084,43.856 L252.644,61.3 C252.868,61.86 253.288,62.224 253.932,62.224 L253.932,62.224 Z M273.372,61.02 C273.372,61.636 273.876,62.14 274.464,62.14 C275.08,62.14 275.584,61.636 275.584,61.02 L275.584,43.38 C275.584,42.764 275.08,42.26 274.464,42.26 C273.876,42.26 273.372,42.764 273.372,43.38 L273.372,61.02 Z M292.504,61.02 C292.504,61.636 293.008,62.14 293.624,62.14 C294.24,62.14 294.744,61.636 294.744,61.02 L294.744,44.444 L300.428,44.444 C300.988,44.444 301.464,43.996 301.464,43.436 C301.464,42.876 300.988,42.4 300.428,42.4 L286.82,42.4 C286.26,42.4 285.784,42.876 285.784,43.436 C285.784,43.996 286.26,44.444 286.82,44.444 L292.504,44.444 L292.504,61.02 Z M317.488,61.02 C317.488,61.636 317.992,62.14 318.608,62.14 C319.224,62.14 319.728,61.636 319.728,61.02 L319.728,54.244 L326.98,44.164 C327.12,43.94 327.288,43.632 327.288,43.352 C327.288,42.764 326.812,42.26 326.196,42.26 C325.72,42.26 325.44,42.54 325.16,42.932 L318.636,52.256 L312.168,42.932 C311.888,42.54 311.58,42.26 311.104,42.26 C310.488,42.26 309.956,42.764 309.956,43.352 C309.956,43.632 310.068,43.884 310.208,44.108 L317.488,54.3 L317.488,61.02 Z M341.556,60.516 C341.556,61.44 342.284,62.14 343.208,62.14 C344.132,62.14 344.86,61.44 344.86,60.516 L344.86,57.604 L346.372,57.604 C347.184,57.604 347.8,56.988 347.8,56.204 C347.8,55.42 347.184,54.776 346.372,54.776 L344.86,54.776 L344.86,43.772 C344.86,42.848 344.104,42.12 343.18,42.12 C342.172,42.12 341.696,42.512 341.08,43.24 L331.868,54.16 C331.364,54.748 331.112,55.308 331.112,55.98 C331.112,56.932 331.868,57.604 332.792,57.604 L341.556,57.604 L341.556,60.516 Z M335.116,54.776 L341.556,47.02 L341.556,54.776 L335.116,54.776 Z" id="GRAVITY4" sketch:type="MSShapeGroup"></path>
        </g>
    </g>
</svg>