<svg width="4px" height="8px" viewBox="0 0 4 8" version="1.1" xmlns="http://www.w3.org/2000/svg">
    <path fill="#ffffff" d="M2.2268,0.25368 C2.38173333,0.0854933333 2.57045333,0 2.78754667,0 C2.96357333,0 3.11832,0.06328 3.23461333,0.18312 C3.35165333,0.3024 3.41101333,0.454906667 3.41101333,0.635973333 C3.41101333,0.863146667 3.33168,1.06493333 3.17525333,1.23592 C3.01453333,1.41250667 2.82656,1.50210667 2.61730667,1.50210667 C2.44445333,1.50210667 2.29138667,1.43733333 2.17472,1.31469333 C2.05917333,1.19448 2,1.03749333 2,0.848586667 C2,0.617306667 2.07634667,0.417013333 2.2268,0.25368 L2.2268,0.25368 Z"></path>
    <path fill="#ffffff" d="M3.01259482,6.41653333 C2.43934149,6.95544 2.03035482,7.29144 1.76230149,7.44413333 C1.47632816,7.60784 1.24075482,7.68773333 1.04232816,7.68773333 C0.845208157,7.68773333 0.68430149,7.62202667 0.564088157,7.49266667 C0.44742149,7.36778667 0.388434824,7.19885333 0.388434824,6.99146667 C0.388434824,6.46133333 0.68878149,5.23026667 1.30702149,3.22770667 C1.31747482,3.19373333 1.32568816,3.16162667 1.33110149,3.13157333 C1.30814149,3.14146667 1.28144816,3.15565333 1.25046149,3.17488 C1.19987482,3.2068 1.04568816,3.32776 0.594514824,3.76848 C0.525634824,3.83586667 0.417928157,3.84202667 0.341768157,3.78304 L0.0748348238,3.57658667 C0.0322748238,3.54392 0.00539482381,3.49464 0.00072815714,3.44106667 C-0.00393850953,3.38749333 0.0139814905,3.33429333 0.0500081571,3.29453333 C0.46590149,2.83664 0.85398149,2.50437333 1.20379482,2.30650667 C1.57003482,2.10024 1.87952816,2 2.14982149,2 C2.32472816,2 2.46584816,2.04330667 2.56982149,2.12936 C2.68294149,2.22362667 2.74267482,2.35466667 2.74267482,2.50810667 C2.74267482,2.60890667 2.69488816,2.87154667 2.34171482,4.05594667 C1.83715482,5.74808 1.71675482,6.36221333 1.70854149,6.57482667 C1.80392816,6.51826667 2.02979482,6.35792 2.51176816,5.90506667 C2.58680816,5.83394667 2.70459482,5.83525333 2.77832816,5.90712 L3.01483482,6.13784 C3.05272816,6.17461333 3.07382149,6.22501333 3.07326149,6.27784 C3.07270149,6.33048 3.05086149,6.38032 3.01259482,6.41653333 L3.01259482,6.41653333 Z"></path>
</svg>