<svg xmlns="http://www.w3.org/2000/svg" x="0px" y="0px"
	 width="14px" height="16px" viewBox="0 0 14 16" enable-background="new 0 0 14 16" xml:space="preserve">
	<path fill="#ffffff" d="M13.646,3.646l-3.293-3.293C10.158,0.158,9.775,0,9.5,0H1C0.447,0,0,0.447,0,1v4.5C0,5.776,0.224,6,0.5,6h1
		C1.776,6,2,5.776,2,5.5V2h6v3.5C8,5.776,8.225,6,8.5,6H12v8H2v-1.5C2,12.225,1.776,12,1.5,12h-1C0.224,12,0,12.225,0,12.5V15
		c0,0.553,0.447,1,1,1h12c0.553,0,1-0.447,1-1V4.5C14,4.224,13.842,3.842,13.646,3.646z"/>
	<path fill="#ffffff" d="M3.5,6.09L0.178,8.677C-0.057,8.855-0.06,9.145,0.174,9.323L3.5,11.91C3.736,12.089,4,11.992,4,11.695V10
		h3.499C7.775,10,8,9.775,8,9.5v-1C8,8.224,7.775,8,7.499,8H4V6.305C4,6.008,3.735,5.911,3.5,6.09z"/>
</svg>
