<svg xmlns="http://www.w3.org/2000/svg" x="0px" y="0px"
	 width="16px" height="16px" viewBox="0 0 16 16" enable-background="new 0 0 16 16" xml:space="preserve">
	<path fill="#0075D6" d="M5,1.5v-1C5,0.224,4.776,0,4.5,0h-1C3.224,0,3,0.224,3,0.5v1C3,1.776,3.224,2,3.5,2h1 C4.776,2,5,1.776,5,1.5z"/>
	<path fill="#0075D6" d="M13,1.5v-1C13,0.224,12.775,0,12.5,0h-1C11.225,0,11,0.224,11,0.5v1C11,1.776,11.225,2,11.5,2h1 C12.775,2,13,1.776,13,1.5z"/>
	<path fill="#0075D6" d="M13.5,3h-3C10.225,3,10,2.776,10,2.5v-2C10,0.224,9.775,0,9.5,0h-3C6.224,0,6,0.224,6,0.5v2 C6,2.776,5.776,3,5.5,3h-3C2.224,3,2,2.776,2,2.5v-2C2,0.224,1.776,0,1.5,0H1C0.448,0,0,0.447,0,1v14c0,0.553,0.448,1,1,1h14 c0.552,0,1-0.447,1-1V1c0-0.553-0.448-1-1-1h-0.5C14.225,0,14,0.224,14,0.5v2C14,2.776,13.775,3,13.5,3z M14,14H2V5h12V14z"/>
	<path fill="#0075D6" d="M5.5,7h-1C4.224,7,4,7.224,4,7.5v1C4,8.775,4.224,9,4.5,9h1C5.776,9,6,8.775,6,8.5v-1 C6,7.224,5.776,7,5.5,7z"/>
	<path fill="#0075D6" d="M5.5,10h-1C4.224,10,4,10.225,4,10.5v1C4,11.775,4.224,12,4.5,12h1C5.776,12,6,11.775,6,11.5v-1 C6,10.225,5.776,10,5.5,10z"/>
	<path fill="#0075D6" d="M11.5,10h-4C7.224,10,7,10.225,7,10.5v1C7,11.775,7.224,12,7.5,12h4c0.275,0,0.5-0.225,0.5-0.5v-1 C12,10.225,11.775,10,11.5,10z"/>
	<path fill="#0075D6" d="M11.5,7h-4C7.224,7,7,7.224,7,7.5v1C7,8.775,7.224,9,7.5,9h4C11.775,9,12,8.775,12,8.5v-1 C12,7.224,11.775,7,11.5,7z"/>
</svg>
