<svg xmlns="http://www.w3.org/2000/svg" x="0px" y="0px" width="20px" height="20px" viewBox="0 0 20 20" enable-background="new 0 0 20 20" xml:space="preserve">
<path fill="#FFFFFF" d="M5.625,7.5h8.75C14.721,7.5,15,7.221,15,6.875v-1.25C15,5.279,14.721,5,14.375,5h-8.75 C5.279,5,5,5.279,5,5.625v1.25C5,7.221,5.279,7.5,5.625,7.5z"/>
<path fill="#FFFFFF" d="M5.625,11.25h5c0.346,0,0.625-0.279,0.625-0.625v-1.25c0-0.346-0.279-0.625-0.625-0.625h-5 C5.279,8.75,5,9.029,5,9.375v1.25C5,10.971,5.279,11.25,5.625,11.25z"/>
<path fill="#FFFFFF" d="M18.75,0H1.25C0.559,0,0,0.559,0,1.25V15c0,0.691,0.559,1.25,1.25,1.25H2.5v2.5C2.5,19.441,3.059,20,3.75,20 H5c0.227,0,0.449-0.061,0.644-0.178l5.953-3.572h7.153c0.691,0,1.25-0.559,1.25-1.25V1.25C20,0.559,19.441,0,18.75,0z M17.5,13.75 h-6.25c-0.227,0-0.449,0.061-0.644,0.178L5,17.293V15c0-0.691-0.559-1.25-1.25-1.25H2.5V2.5h15V13.75z"/>
</svg>
