<?xml version="1.0" encoding="UTF-8" standalone="no"?>
<svg width="188px" height="58px" viewBox="0 0 188 58" version="1.1" xmlns="http://www.w3.org/2000/svg" xmlns:xlink="http://www.w3.org/1999/xlink" xmlns:sketch="http://www.bohemiancoding.com/sketch/ns">
    <!-- Generator: Sketch 3.3.2 (12043) - http://www.bohemiancoding.com/sketch -->
    <title>Group + Group + Group</title>
    <desc>Created with Sketch.</desc>
    <defs></defs>
    <g id="Screens" stroke="none" stroke-width="1" fill="none" fill-rule="evenodd" sketch:type="MSPage">
        <g id="Home-Copy" sketch:type="MSArtboardGroup" transform="translate(-296.000000, -718.000000)">
            <g id="Features-Copy" sketch:type="MSLayerGroup" transform="translate(0.000000, 477.000000)">
                <g id="Social-Equity-and-Au-+-Implement-elegant-sh-+-Group-+-Group-+-Group" transform="translate(240.000000, 242.000000)" sketch:type="MSShapeGroup">
                    <g id="Group-+-Group-+-Group" transform="translate(57.000000, 0.000000)">
                        <g id="Group" transform="translate(139.111111, 8.888889)" stroke="#0075D6" stroke-width="2">
                            <path d="M0,14 L0,20 C0,21.649 0.35,23 2,23 L2,31 L8,31 L8,23 C9.648,23 9.998,21.647 10,20 L10,14 L0,14 L0,14 Z" id="Stroke-9334"></path>
                            <path d="M36,14 L36,20 C36,21.649 36.35,23 38,23 L38,31 L44,31 L44,23 C45.648,23 45.998,21.647 46,20 L46,14 L36,14 L36,14 Z" id="Stroke-9335"></path>
                            <path d="M16,14 L30,14 L30,24 C30,26.199 28.199,28 26,28 L26,40 L20,40 L20,28 C17.799,28 16,26.199 16,24 L16,14 L16,14 Z" id="Stroke-9336"></path>
                            <path d="M44,7 C44,8.657 42.657,10 41,10 C39.343,10 38,8.657 38,7 C38,5.343 39.343,4 41,4 C42.657,4 44,5.343 44,7 L44,7 Z" id="Stroke-9337"></path>
                            <path d="M8,7 C8,8.657 6.657,10 5,10 C3.343,10 2,8.657 2,7 C2,5.343 3.343,4 5,4 C6.657,4 8,5.343 8,7 L8,7 Z" id="Stroke-9338"></path>
                            <path d="M28,5 C28,7.761 25.761,10 23,10 C20.239,10 18,7.761 18,5 C18,2.239 20.239,0 23,0 C25.761,0 28,2.239 28,5 L28,5 Z" id="Stroke-9339"></path>
                        </g>
                        <g id="Group" transform="translate(0.888889, 0.000000)" stroke="#0075D6" stroke-width="2" stroke-linejoin="round">
                            <path d="M42.1268413,24.1128085 C42.1268413,29.4417391 37.6882761,33.7579318 32.2137978,33.7579318 C26.7393196,33.7579318 22.3007543,29.4417391 22.3007543,24.1128085 C22.3007543,18.7874947 26.7393196,14.4676851 32.2137978,14.4676851 C37.6882761,14.4676851 42.1268413,18.7874947 42.1268413,24.1128085 L42.1268413,24.1128085 Z" id="Stroke-8567"></path>
                            <path d="M7.43478261,12.0576099 C7.43478261,14.0553561 5.77186957,15.6745311 3.7173913,15.6745311 C1.66291304,15.6745311 0,14.0553561 0,12.0576099 C0,10.058658 1.66291304,8.4406886 3.7173913,8.4406886 C5.77186957,8.4406886 7.43478261,10.058658 7.43478261,12.0576099 L7.43478261,12.0576099 Z" id="Stroke-8568"></path>
                            <path d="M57,3.61692127 C57,5.61466745 55.337087,7.23384254 53.2826087,7.23384254 C51.2281304,7.23384254 49.5652174,5.61466745 49.5652174,3.61692127 C49.5652174,1.61796945 51.2281304,0 53.2826087,0 C55.337087,0 57,1.61796945 57,3.61692127 L57,3.61692127 Z" id="Stroke-8569"></path>
                            <path d="M7.43478261,51.8425382 C7.43478261,53.84149 5.77186957,55.4594595 3.7173913,55.4594595 C1.66291304,55.4594595 0,53.84149 0,51.8425382 C0,49.8472033 1.66291304,48.2256169 3.7173913,48.2256169 C5.77186957,48.2256169 7.43478261,49.8472033 7.43478261,51.8425382 L7.43478261,51.8425382 Z" id="Stroke-8570"></path>
                            <path d="M35.9311891,51.8425382 C35.9311891,53.84149 34.2682761,55.4594595 32.2137978,55.4594595 C30.1593196,55.4594595 28.4964065,53.84149 28.4964065,51.8425382 C28.4964065,49.8472033 30.1593196,48.2256169 32.2137978,48.2256169 C34.2682761,48.2256169 35.9311891,49.8472033 35.9311891,51.8425382 L35.9311891,51.8425382 Z" id="Stroke-8571"></path>
                            <path d="M6.34211739,49.2864599 L25.2264652,30.9546973" id="Stroke-8572"></path>
                            <path d="M39.2370652,17.3051598 L50.6506957,6.17589307" id="Stroke-8573"></path>
                            <path d="M7.06081304,13.6259069 L23.1013565,20.3135944" id="Stroke-8574"></path>
                            <path d="M49.7165152,32.6223391 L40.7526457,29.0174743" id="Stroke-8575"></path>
                            <path d="M32.2137978,48.2256169 L32.2137978,33.7579318" id="Stroke-8576"></path>
                            <path d="M57,33.7579318 C57,35.755678 55.3358478,37.3748531 53.2826087,37.3748531 C51.2293696,37.3748531 49.5652174,35.755678 49.5652174,33.7579318 C49.5652174,31.7601857 51.2293696,30.1410106 53.2826087,30.1410106 C55.3358478,30.1410106 57,31.7601857 57,33.7579318 L57,33.7579318 Z" id="Stroke-8577"></path>
                        </g>
                        <g id="Group" transform="translate(98.111111, 28.500000) rotate(90.000000) translate(-98.111111, -28.500000) translate(87.111111, 10.500000)" stroke="#9B9BA7" stroke-linecap="round" stroke-linejoin="round">
                            <path d="M7,18.6666667 L7,11.6666667 L0,11.6666667 L10.8888889,0 L21.7777778,11.6666667 L14.7777778,11.6666667 L14.7777778,18.6666667" id="Stroke-2607"></path>
                            <path d="M7,21.7777778 L7,25.6666667" id="Stroke-2608"></path>
                            <path d="M14,21.7777778 L14,25.6666667" id="Stroke-2609"></path>
                            <path d="M7,28.7777778 L7,31.1111111" id="Stroke-2610"></path>
                            <path d="M14,28.7777778 L14,31.1111111" id="Stroke-2611"></path>
                            <path d="M7,34.2222222 L7,35" id="Stroke-2612"></path>
                            <path d="M14,34.2222222 L14,35" id="Stroke-2613"></path>
                        </g>
                    </g>
                </g>
            </g>
        </g>
    </g>
</svg>